<?xml version="1.0" encoding="utf-8"?>
<!-- Generator: Adobe Illustrator 25.0.1, SVG Export Plug-In . SVG Version: 6.00 Build 0)  -->
<svg version="1.1" id="Calque_1" xmlns="http://www.w3.org/2000/svg" xmlns:xlink="http://www.w3.org/1999/xlink" x="0px" y="0px"
	 viewBox="0 0 800 800" style="enable-background:new 0 0 800 800;" xml:space="preserve">
<style type="text/css">
	.st0{opacity:0.1;enable-background:new    ;}
	.st1{fill:#64A6C0;}
	.st2{fill:#5BA3BA;}
	.st3{fill:#B9BDE1;}
	.st4{fill:#0E4259;}
	.st5{fill:#134E6F;}
	.st6{fill:#FFFFFF;}
	.st7{fill:#FFA822;}
	.st8{fill:#FF6150;}
	.st9{fill:#1B1531;}
</style>
<g class="st0">
	<path class="st1" d="M623,89.7c-226-90.5-287.4,77-314.1,157.8s-140.8,88.8-193.2,87.1s-130.9,126.2-56,205.4
		c96,101.5,304,238,466.8,131.8S867.5,187.5,623,89.7z"/>
</g>
<g>
	<path class="st2" d="M585,427.9c0,0.1,0,0.2,0,0.2V427.9z"/>
</g>
<g>
	<path class="st2" d="M725.5,439.2l-0.3-0.5C725.3,438.9,725.4,439,725.5,439.2z"/>
</g>
<g>
	<path class="st2" d="M676.4,395.6c3.9-1.2,9.3,0.7,22.9,0.7s21.7,10.3,21.7,10.3c-1-2.1-1.4-9.6-2.1-13.8s-3.7-9.2-5-11.8
		s-2-4.2-4.8-4.8s-4.5,1.5-11.5,1.6s-10.9,0-21.1,3s-10.9,0,2.2-6.2s27.6-0.2,27.6-0.2c-2-1.6-2.5-2.6-8.9-11.9s-17-8.6-21.4-8.5
		s-5.9-5.6-8.7-7.5s-14.2,6.8-20,12.1s-1.8,9.9-1.3,13.5c0.4,4.5,0.4,9,0,13.5c-0.3,4.7-2,3.6-3.8,2.3c-1.7-1.1-3.3-2.5-4.7-4
		c-2.8-4.5-10.5-8.5-15.9-11.8s-4.4-2.4-18.3,4.9s-12,15.4-12.6,18.2s-4.8,7.5-4.9,11.4c-0.1,3.6-0.6,19.2-0.7,21.3
		c0.3-2.2,6.6-9.4,11.7-13.1c5.3-3.8,10.1-10,17.1-11.4s2.8,3.2-6.2,8.7s-18.2,13.2-20.6,16.2s-2.9,15.5,2.2,19.5
		c3.4,2.9,6.3,6.2,8.7,10c0.9-4.9,3.4-13.2,7.1-18.9s10.2-16.5,13.4-19.2s6.6-5.1,7.8-2.5s-8.8,13.9-17.4,24.4s-9,19.1-9,21.7
		s4.5,8.1,8.4,10.8s6.6,8.5,6.6,8.5c-0.2-3.1,4.9-23.6,5.3-30.9s5.7-13.7,8.4-17.5s6.3-1.7,3.6,2.1s-10,20.9-12.5,26.6
		s-0.7,8-1.8,15s-0.2,7.8,1.9,10.7s17,8.6,17,8.6c-5.7-13.4-0.8-37,2.5-47.6s9.9-15.7,12.5-15.6s2.5,4-2.3,12.7s-10.1,26.1-9.2,29.5
		s1.2,5.2-0.5,11.2s0.1,8.3,2.7,11s19.7,4.8,19.7,4.8c-2.8-1.9-3.8-5.3-5.5-11.5s0.7-21.6,1-27.6s2.8-9,4.9-10s5-0.4,1.2,17.5
		c-2.2,10.6-1.6,21.7,1.7,32c16.5-5.9,34.9-3.8,34.9-3.8c-3.7-9.2,8.7-17,8.7-17c-1-3.4-3.5-4.8-5.8-8.2s-10-8.8-15.8-14.4
		s3.4-2.3,4.7-1s8.4,9.5,14,14.6s4.5,8.1,4.5,8.1c2.9-2,9.1-14.6,9.1-16.7s-1.4-3.7-12.9-14.4s-26-12.7-29.7-13.6s-3.8-4-1.2-5.2
		s6.2,0.9,10.4,2.8s11.8,7.2,19.3,12.1s14.6,15.6,14.6,15.6c-0.7-2.9,6.3-19.1,6.1-21s-1.5-1.9-8.9-9.3s-28.9-14.6-35.9-15.8
		s-5.7-3.8,0.3-3.4s24.8,8.8,32,13.1c6.2,3.7,10.4,10.2,11.5,12c-0.3-0.8-0.9-2.7-0.6-6.8c0.4-6-0.1-20.5-1.9-21.6
		s-3.1-2.4-11.3-4.9s-27.5-5-36.3-5.9S672.5,396.8,676.4,395.6z M633.5,405.7c0.5-2.5,2.7-2.5,3.7-1.8c0.9,0.7,1,1.9,0.4,2.8
		c-0.2,0.2-0.4,0.4-0.7,0.6C635.3,408.1,633,408.5,633.5,405.7L633.5,405.7z M647.6,417.7c-3.5,4.9-8.2,8.4-9.5,7.1s-1-4.7,0.9-7.5
		s3.7-3,3.7-3C644.3,413.4,651.1,412.8,647.6,417.7L647.6,417.7z"/>
</g>
<g>
	<path class="st1" d="M28.2,520.4c-0.1,0-0.1,0.1-0.2,0.1L28.2,520.4z"/>
</g>
<g>
	<path class="st1" d="M107.3,637c0,0,0.1-0.2,0.2-0.5C107.5,636.7,107.4,636.8,107.3,637z"/>
</g>
<g>
	<path class="st1" d="M110.6,571.4c3.4,2.3,5.3,7.7,13.8,18.3s5.5,23.3,5.5,23.3c1-2.1,6.7-7.1,9.5-10.3s4.8-8.7,6.1-11.3
		s2-4.2,0.7-6.8s-3.9-2.5-8.4-8s-6.9-8.5-15.6-14.6s-6.9-8.5,6.2-2.2s17.5,21.3,17.5,21.3c0-2.6,0.5-3.7,3.7-14.4s-3.9-18.7-6.8-22
		s0.7-8.1,0.4-11.5s-14.1-6.8-22-8s-8.8,4.8-11.3,7.4c-3.3,3.1-6.8,6-10.6,8.5c-3.9,2.7-4,0.7-4.2-1.5c-0.2-2.1-0.1-4.2,0.2-6.2
		c1.8-5,0.1-13.5-0.8-19.8s-0.8-4.9-15.2-11.2s-19.5,0.3-22.1,1.6s-8.8,0.9-11.9,3.3c-2.9,2.2-15.4,11.6-17.1,12.8
		c1.9-1.1,11.5-0.7,17.5,0.9c6.3,1.7,14.1,1.6,19.6,6.2s-0.7,4.2-10.7,0.7s-21.6-5.9-25.6-5.8s-13.9,7.5-13.9,14
		c-0.1,4.4-0.9,8.8-2.4,13c4.4-2.4,12.4-5.6,19.2-6.2s19.2-2.3,23.4-1.6s8.1,2,6.8,4.6s-16.4,1.8-29.9,1.7s-20.5,5-22.5,6.5
		s-3.5,8.7-3.2,13.3s-2.5,10.4-2.5,10.4c2.3-2.1,21.4-11,27.4-15.2s14.2-4.1,18.9-4.4s5.2,3.8,0.6,4.2s-22.5,5.3-28.5,6.9
		s-6.7,4.5-12.9,8s-6.2,4.8-7.2,8.2s3.9,18.7,3.9,18.7c6.8-12.8,28.3-23.8,38.6-27.8s18.4-2.1,20,0s-1.5,4.4-11.4,6.1
		s-26.6,8.4-28.7,11.3s-3.3,4.2-9,6.6s-6.4,5.3-6.9,8.9s8.6,18.3,8.6,18.3c-0.3-3.4,1.7-6.3,5.6-11.5s17.2-13,22.1-16.4
		s8.8-3.5,10.9-2.5s3.4,3.6-12.8,11.9c-9.7,4.9-17.9,12.3-23.9,21.4c15,9.2,24.8,24.9,24.8,24.9c4.8-8.7,18.7-3.9,18.7-3.9
		c2-2.9,1.5-5.7,2.7-9.7s0.6-13.3,1.3-21.3s3.9,1.2,3.7,3.1s-2.2,12.5-2.6,20.1s-3.5,8.6-3.5,8.6c3.4,1,17.1-2,18.7-3.3
		s2-3.4,3.1-19.1s-6.4-28.3-8-31.6s0.7-5.5,3.3-4.2s3.2,5.4,4.3,9.8s1.8,13.8,2.7,22.6s-3.1,21.1-3.1,21.1c1.8-2.4,18.9-7,20.2-8.3
		s0.5-2.3,1.7-12.8s-6.7-31.6-10.1-37.8s-0.6-6.8,2.8-1.9s8.7,24.8,9.8,33.2c1,7.1-1.5,14.5-2.2,16.4c0.4-0.8,1.5-2.4,4.9-4.8
		c4.9-3.4,15.9-13,15.7-15s0-3.9-3.3-11.9s-13.3-24.5-18.1-32S107.2,569.1,110.6,571.4z M75.9,544.3c2.3-1.2,3.7,0.5,3.7,1.8
		c0,1.1-0.8,2-1.9,2.1c-0.3,0-0.6,0-0.9-0.2C75.2,547.2,73.3,545.7,75.9,544.3z M75.4,562.8c-6,0.3-11.7-1.1-11.5-3s3.1-3.7,6.5-4
		s4.7,1,4.7,1C76.6,557.6,81.3,562.5,75.4,562.8z"/>
</g>
<g>
	<path class="st1" d="M792.8,502.5c-13.3-8.5-13.6-5.2-26.5-4.8s-25.8,0-27.6-6.3s5.5-9.2,11-9.2s28.7,0,37.6,6.3l8.8,6.3
		c0,0-11-34.2-40.5-47.9s-37.6-11-44.7-8.1c-6.9,2.8-10.5,14-19.7,17.7s-10,5.2-8.8,14.4l1.1,9.2c0,0-1.1-5.1-11.8-6.3
		s-6.7-1.1-13.6-1.5c-7.4-0.5-15.5,1-21.7,9.2c-6.1,7.9-1.9,8.1-7.4,16.6c-7,10.9-10.3,22.5-5.5,35.3s4.8,18,8.1,19.5
		c0,0-1.1-13.3,4-20.3s8.5-9.9,11.4-14s4.7-2.6,5.7,1.1s-2.3,7.9-6.8,13.3c-2.3,2.8-10.3,15.1-6.6,25s16.2,23.9,19.9,25.8
		c0,0-7.4-21.4,6.3-40.9s15.8-16.4,18-15s3.7,5.8,0,13.2s-15.1,21.4-16.2,35.7s25.8,26.5,25.8,26.5s-14.4-32-4.8-46
		c1.9-2,7-9.6,8.8,4.8s0.4,24.7,0,31.7s4,15.8,16.6,15.8s23.9-8.5,36.1-3l12.2,5.5c0,0-2.2-9.2,7.7-22.5S791,567,788,551.9
		s-19.9-21.4-31.3-24.3s-5.2-12.9,1.1-12.2s30.6,8.5,39,17.7C796.9,533.1,806.1,511,792.8,502.5z M665.8,501
		c-2.6,2.2-10.7,3.3-16.6,3.3s-10.3-3-4.8-7.7s18.4-1.5,18.4-1.5C669.5,496.2,668.4,498.8,665.8,501z M700.3,545.9c-3.7,1.1-4-7-4-7
		s0.8-6.4,4.2-7.3s3.8,4.1,4.2,6.6S703.9,544.8,700.3,545.9L700.3,545.9z M719.5,467.1c10.3-14.7,30.2-5.1,30.2-5.1
		c-6.3-1.5-13.6,10.7-17.7,14.7S709.2,481.9,719.5,467.1L719.5,467.1z M717.5,597.6c-6.5-0.5-6.5-17-6.1-25.4s0.5-12.8,4.6-14.1
		s4.9,3.9,4.5,8c-0.2,3.7-0.2,7.5,0,11.2C720.5,580.3,723.9,598.1,717.5,597.6L717.5,597.6z M739.1,518.3c-2.2,9.2-8.1,9.9-14.4,6.3
		s-7.4-8.1,0-11.4C724.7,513.2,741.3,509.1,739.1,518.3L739.1,518.3z M760.3,591.5c-2,6.2-10,1.2-10.4-3.5s-0.7-9.2,3.8-7.7
		C754.3,580.5,762.4,585.3,760.3,591.5L760.3,591.5z M753.2,542.3c0,0,11.1,2.8,19.5,14.3s0.1,6.9-1.3,5.7s-2.3-1.9-2.3-1.9
		s-11.6-6.5-16.5-8.2s-10.4-4-10.5-7.6s2.6-5.5,6.9-3.9L753.2,542.3z"/>
</g>
<g>
	<rect x="237.4" y="415" class="st3" width="15.4" height="40.3"/>
</g>
<g class="st0">
	<circle class="st1" cx="200.2" cy="127.1" r="38.1"/>
</g>
<g class="st0">
	<circle class="st1" cx="71.5" cy="279.7" r="22.1"/>
</g>
<g class="st0">
	<circle class="st1" cx="781.5" cy="372.6" r="18.5"/>
</g>
<g>
	<polygon class="st4" points="432.7,583.2 357.9,583.2 365,502.6 425.7,502.6 	"/>
</g>
<g>
	<path class="st5" d="M172.8,226.6h445.1c5.9,0,10.6,4.8,10.6,10.6v284.7c0,5.9-4.8,10.6-10.6,10.6H172.8c-5.9,0-10.6-4.8-10.6-10.6
		V237.2C162.1,231.4,166.9,226.6,172.8,226.6z"/>
</g>
<g>
	<path class="st5" d="M327.3,570.8h136.1c2.1,0,3.8,1.7,3.8,3.8v17.2c0,2.1-1.7,3.8-3.8,3.8H327.3c-2.1,0-3.8-1.7-3.8-3.8v-17.2
		C323.5,572.5,325.2,570.8,327.3,570.8z"/>
</g>
<g>
	<path class="st6" d="M194.9,248.9h400.9c4.6,0,8.4,3.7,8.4,8.4v225.1c0,4.6-3.7,8.4-8.4,8.4H194.9c-4.6,0-8.4-3.7-8.4-8.4V257.3
		C186.5,252.6,190.2,248.9,194.9,248.9z"/>
</g>
<g class="st0">
	<path class="st1" d="M214.4,268.2h292.7c2.8,0,5.1,2.3,5.1,5.1v195.9c0,2.8-2.3,5.1-5.1,5.1H214.4c-2.8,0-5.1-2.3-5.1-5.1V273.3
		C209.3,270.5,211.6,268.2,214.4,268.2z"/>
</g>
<g>
	<rect x="266.4" y="386" class="st7" width="15.4" height="69.2"/>
</g>
<g>
	<rect x="299.1" y="401.4" class="st1" width="15.4" height="53.8"/>
</g>
<g>
	<rect x="330.6" y="363.1" class="st7" width="15.4" height="92.1"/>
</g>
<g>
	<path class="st8" d="M246.2,399.6l-2.1-2.1l28.8-28.8l0.9,0.3c12.3,4.3,26.2,8.6,28.7,8.6c0,0,0.1,0,0.1,0
		c3-1.8,22.7-24.9,34.6-39.2l2.3,1.9c-12.3,14.7-33.2,39.4-36.2,40.2c-2.9,0.7-21-5.4-29.7-8.4L246.2,399.6z M302.4,377.7
		L302.4,377.7L302.4,377.7z"/>
</g>
<g>
	<polygon class="st8" points="339.8,352.8 336.8,352.8 336.8,340.9 324.9,340.9 324.9,337.9 339.8,337.9 	"/>
</g>
<g>
	<rect x="367.3" y="327.8" class="st5" width="125" height="11.6"/>
</g>
<g>
	<rect x="227" y="301.8" class="st5" width="265.3" height="5.8"/>
</g>
<g>
	<path class="st5" d="M481.8,436.6H377.1v-3h104.6V436.6z M378.1,435.6h102.6v-1H378.1V435.6z"/>
</g>
<g>
	<path class="st5" d="M481.8,421.9h-75.9v-3h75.9V421.9z M406.9,420.9h73.9v-1h-73.9V420.9z"/>
</g>
<g>
	<path class="st5" d="M481.8,442.9H377.1v-3h104.6V442.9z M378.1,441.9h102.6v-1H378.1V441.9z"/>
</g>
<g>
	<path class="st5" d="M481.8,449.2H377.1v-3h104.6V449.2z M378.1,448.2h102.6v-1H378.1V448.2z"/>
</g>
<g>
	<rect x="367.3" y="350.3" class="st5" width="57.6" height="12.8"/>
</g>
<g>
	<rect x="434.8" y="350.3" class="st5" width="57.6" height="12.8"/>
</g>
<g>
	<rect x="434.8" y="375.1" class="st5" width="57.6" height="10.9"/>
</g>
<g>
	<rect x="367.3" y="375.1" class="st5" width="57.6" height="10.7"/>
</g>
<g>
	<path class="st5" d="M487.5,455.8H372.1c-2.9,0-5.3-2.4-5.3-5.3v-44.2c0-2.9,2.4-5.3,5.3-5.3h115.4c2.9,0,5.3,2.4,5.3,5.3v44.2
		C492.8,453.4,490.4,455.8,487.5,455.8z M372.1,401.9c-2.4,0-4.3,1.9-4.3,4.3v44.2c0,2.4,1.9,4.3,4.3,4.3h115.4
		c2.4,0,4.3-1.9,4.3-4.3v-44.2c0-2.4-1.9-4.3-4.3-4.3H372.1z"/>
</g>
<g>
	<circle class="st5" cx="386.6" cy="419.4" r="9.7"/>
</g>
<g class="st0">
	<path class="st1" d="M527.2,268.2h62.9c1.6,0,2.8,1.3,2.8,2.8v200.4c0,1.6-1.3,2.8-2.8,2.8h-62.9c-1.6,0-2.8-1.3-2.8-2.8V271.1
		C524.4,269.5,525.7,268.2,527.2,268.2z"/>
</g>
<g>
	<path class="st8" d="M581.8,303.6h-46.3c-2.3,0-4.2-1.9-4.2-4.2v-19.3c0-2.3,1.9-4.2,4.2-4.2h46.3c2.3,0,4.2,1.9,4.2,4.2v19.3
		C586,301.7,584.1,303.6,581.8,303.6z M535.6,278c-1.2,0-2.2,1-2.2,2.2v19.3c0,1.2,1,2.2,2.2,2.2h46.3c1.2,0,2.2-1,2.2-2.2v-19.3
		c0-1.2-1-2.2-2.2-2.2H535.6z"/>
</g>
<g>
	<path class="st7" d="M534,311.6h49.4c0.9,0,1.6,0.7,1.6,1.6v4.2c0,0.9-0.7,1.6-1.6,1.6H534c-0.9,0-1.6-0.7-1.6-1.6v-4.2
		C532.4,312.3,533.1,311.6,534,311.6z"/>
</g>
<g>
	<path class="st7" d="M534,323h49.4c0.9,0,1.6,0.7,1.6,1.6v4.2c0,0.9-0.7,1.6-1.6,1.6H534c-0.9,0-1.6-0.7-1.6-1.6v-4.2
		C532.4,323.8,533.1,323,534,323z"/>
</g>
<g>
	<path class="st7" d="M534,334.5h49.4c0.9,0,1.6,0.7,1.6,1.6v4.2c0,0.9-0.7,1.6-1.6,1.6H534c-0.9,0-1.6-0.7-1.6-1.6V336
		C532.4,335.2,533.1,334.5,534,334.5z"/>
</g>
<g>
	<path class="st7" d="M534,345.9h49.4c0.9,0,1.6,0.7,1.6,1.6v4.2c0,0.9-0.7,1.6-1.6,1.6H534c-0.9,0-1.6-0.7-1.6-1.6v-4.2
		C532.4,346.6,533.1,345.9,534,345.9z"/>
</g>
<g>
	<path class="st7" d="M534,357.3h49.4c0.9,0,1.6,0.7,1.6,1.6v4.2c0,0.9-0.7,1.6-1.6,1.6H534c-0.9,0-1.6-0.7-1.6-1.6v-4.2
		C532.4,358,533.1,357.3,534,357.3z"/>
</g>
<g>
	<path class="st7" d="M534,368.7h49.4c0.9,0,1.6,0.7,1.6,1.6v4.2c0,0.9-0.7,1.6-1.6,1.6H534c-0.9,0-1.6-0.7-1.6-1.6v-4.2
		C532.4,369.4,533.1,368.7,534,368.7z"/>
</g>
<g>
	<path class="st7" d="M534,380.1h49.4c0.9,0,1.6,0.7,1.6,1.6v4.2c0,0.9-0.7,1.6-1.6,1.6H534c-0.9,0-1.6-0.7-1.6-1.6v-4.2
		C532.4,380.8,533.1,380.1,534,380.1z"/>
</g>
<g>
	<path class="st7" d="M534,391.5h49.4c0.9,0,1.6,0.7,1.6,1.6v4.2c0,0.9-0.7,1.6-1.6,1.6H534c-0.9,0-1.6-0.7-1.6-1.6v-4.2
		C532.4,392.2,533.1,391.5,534,391.5z"/>
</g>
<g>
	<path class="st7" d="M534,402.9h49.4c0.9,0,1.6,0.7,1.6,1.6v4.2c0,0.9-0.7,1.6-1.6,1.6H534c-0.9,0-1.6-0.7-1.6-1.6v-4.2
		C532.4,403.6,533.1,402.9,534,402.9z"/>
</g>
<g>
	<path class="st7" d="M534,414.4h49.4c0.9,0,1.6,0.7,1.6,1.6v4.2c0,0.9-0.7,1.6-1.6,1.6H534c-0.9,0-1.6-0.7-1.6-1.6v-4.2
		C532.4,415.1,533.1,414.4,534,414.4z"/>
</g>
<g>
	<path class="st7" d="M534,425.8h49.4c0.9,0,1.6,0.7,1.6,1.6v4.2c0,0.9-0.7,1.6-1.6,1.6H534c-0.9,0-1.6-0.7-1.6-1.6v-4.2
		C532.4,426.5,533.1,425.8,534,425.8z"/>
</g>
<g>
	<path class="st7" d="M534,437.2h49.4c0.9,0,1.6,0.7,1.6,1.6v4.2c0,0.9-0.7,1.6-1.6,1.6H534c-0.9,0-1.6-0.7-1.6-1.6v-4.2
		C532.4,437.9,533.1,437.2,534,437.2z"/>
</g>
<g>
	<path class="st7" d="M534,448.6h49.4c0.9,0,1.6,0.7,1.6,1.6v4.2c0,0.9-0.7,1.6-1.6,1.6H534c-0.9,0-1.6-0.7-1.6-1.6v-4.2
		C532.4,449.3,533.1,448.6,534,448.6z"/>
</g>
<g>
	<path class="st7" d="M534,460h49.4c0.9,0,1.6,0.7,1.6,1.6v4.2c0,0.9-0.7,1.6-1.6,1.6H534c-0.9,0-1.6-0.7-1.6-1.6v-4.2
		C532.4,460.7,533.1,460,534,460z"/>
</g>
<g>
	<polygon class="st5" points="347.1,455.8 228.4,455.8 228.4,347.6 229.4,347.6 229.4,454.8 347.1,454.8 	"/>
</g>
<g>
	<path class="st5" d="M564,437.2h80.4c5.9,0,10.6,4.8,10.6,10.6v152.6c0,5.9-4.8,10.6-10.6,10.6H564c-5.9,0-10.6-4.8-10.6-10.6
		V447.8C553.3,441.9,558.1,437.2,564,437.2z"/>
</g>
<g>
	<path class="st6" d="M573.3,449.8H635c4.2,0,7.6,3.4,7.6,7.6v124.8c0,4.2-3.4,7.6-7.6,7.6h-61.6c-4.2,0-7.6-3.4-7.6-7.6V457.3
		C565.8,453.2,569.1,449.8,573.3,449.8z"/>
</g>
<g>
	<circle class="st6" cx="604.1" cy="600.8" r="6.2"/>
</g>
<g>
	<circle class="st5" cx="578" cy="475.3" r="3.4"/>
</g>
<g>
	<rect x="586.8" y="473.8" class="st7" width="49.8" height="2.9"/>
</g>
<g>
	<rect x="574.6" y="460" class="st9" width="62" height="3"/>
</g>
<g>
	<circle class="st5" cx="578" cy="489" r="3.4"/>
</g>
<g>
	<rect x="586.8" y="487.5" class="st7" width="49.8" height="2.9"/>
</g>
<g>
	<circle class="st5" cx="578" cy="502.7" r="3.4"/>
</g>
<g>
	<rect x="586.8" y="501.3" class="st7" width="49.8" height="2.9"/>
</g>
<g>
	<circle class="st5" cx="578" cy="516.5" r="3.4"/>
</g>
<g>
	<rect x="586.8" y="515" class="st7" width="49.8" height="2.9"/>
</g>
<g>
	<circle class="st5" cx="578" cy="530.2" r="3.4"/>
</g>
<g>
	<rect x="586.8" y="528.7" class="st7" width="49.8" height="2.9"/>
</g>
<g>
	<circle class="st5" cx="578" cy="543.9" r="3.4"/>
</g>
<g>
	<rect x="586.8" y="542.5" class="st7" width="49.8" height="2.9"/>
</g>
<g>
	<circle class="st5" cx="578" cy="557.7" r="3.4"/>
</g>
<g>
	<rect x="586.8" y="556.2" class="st7" width="49.8" height="2.9"/>
</g>
<g>
	<circle class="st5" cx="578" cy="571.4" r="3.4"/>
</g>
<g>
	<rect x="586.8" y="569.9" class="st7" width="49.8" height="2.9"/>
</g>
<g>
	<path class="st5" d="M106.6,386.9h159.8c5.9,0,10.6,4.8,10.6,10.6V610c0,5.9-4.8,10.6-10.6,10.6H106.6c-5.9,0-10.6-4.8-10.6-10.6
		V397.5C96,391.7,100.7,386.9,106.6,386.9z"/>
</g>
<g>
	<path class="st6" d="M118.8,403.8h135.3c4.2,0,7.6,3.4,7.6,7.6v173.1c0,4.2-3.4,7.6-7.6,7.6H118.8c-4.2,0-7.6-3.4-7.6-7.6V411.4
		C111.3,407.2,114.7,403.8,118.8,403.8z"/>
</g>
<g>
	<ellipse class="st6" cx="186.5" cy="607.2" rx="6.2" ry="6.5"/>
</g>
<g>
	<path class="st8" d="M240.5,578.8H132.1c-3.1,0-5.6-2.5-5.6-5.6V425.3c0-3.1,2.5-5.6,5.6-5.6h108.4c3.1,0,5.6,2.5,5.6,5.6v147.9
		C246.1,576.2,243.6,578.8,240.5,578.8z M132.1,421.7c-2,0-3.6,1.6-3.6,3.6v147.9c0,2,1.6,3.6,3.6,3.6h108.4c2,0,3.6-1.6,3.6-3.6
		V425.3c0-2-1.6-3.6-3.6-3.6H132.1z"/>
</g>
<g>
	<circle class="st5" cx="186.3" cy="446.7" r="17"/>
</g>
<g>
	<rect x="138.3" y="477.2" class="st5" width="99.1" height="3"/>
</g>
<g>
	<rect x="138.3" y="488.6" class="st5" width="99.1" height="3"/>
</g>
<g>
	<rect x="138.3" y="500" class="st5" width="99.1" height="3"/>
</g>
<g>
	<rect x="138.3" y="511.4" class="st5" width="99.1" height="3"/>
</g>
<g>
	<rect x="138.3" y="522.8" class="st5" width="99.1" height="3"/>
</g>
<g>
	<rect x="138.3" y="534.2" class="st5" width="99.1" height="3"/>
</g>
<g>
	<rect x="138.3" y="545.6" class="st5" width="99.1" height="3"/>
</g>
<g>
	<path class="st7" d="M163.5,555.8h46c1.2,0,2.2,1,2.2,2.2v9.7c0,1.2-1,2.2-2.2,2.2h-46c-1.2,0-2.2-1-2.2-2.2V558
		C161.3,556.8,162.3,555.8,163.5,555.8z"/>
</g>
<g>
	<rect x="174.4" y="561.4" class="st5" width="26.9" height="3"/>
</g>
<g>
	<path class="st1" d="M175.6,395.5c-0.9-3.2-1.7-5.4-1.7-8.4s0.4-6-2.8-6.3c-1.1-0.2-2.1-0.4-3.2-0.8c1.4-0.2,2.3-1.4,2.2-2.7
		c0-3.4-0.9-8.8,1.3-11.7s-0.7-5.4-5.5-5.7s-6.6-0.9-17.3,2.9s-14.8,5.7-17.1,4.3s-1.9-4-0.5-6s5.8-8.9,11.9-9.4s7.1-1.2,12.1,0
		s9.4,2.2,9.7,1.5s-1.8-3.6-1.9-6.9s-3-10.7-7.1-11.8s-5.9,0.1-9.4,0s-5.7-2-7.9-1.6s-13.5,2.9-16.4,6.7s-7.5,5.2-7.8,16.2
		s-4.4,16.9-6.7,18.8c0,0-0.7,3.3-2.3,3.2s-0.6-2.5,0-4c0.8-2.2,1.2-4.5,1.2-6.8c-0.1-1.7-0.2-2.6-3.7-1.2s-6.1,0.2-9.5-7
		s-9.2-14.4-14.6-16.9s-14.8-3.3-17.6-3.5s-3.3-0.4-6.3,1.6c-1.7,1.1-3.4,2.4-4.9,3.9c-1.3,1.1,0.5,1.6,2.9,0.7s5.2-1.6,10.6-0.9
		s9,0.7,11.8,6.1s4.2,7.5,3.3,9.5s-8.3-4.1-11.7-7.1s-5.7-6.1-9.2-6.2s-7.3,1.3-12.4,1.2s-9.7-1-11.4,0.5s-8.9,6.9-10.5,10.5
		c2.7-0.9,5.6-0.9,8.3,0c4.4,1.6,4.6,3,11.4,3s11.8-1.6,13.6,0.1s10.3,6.3,10.3,7.5s1.3,2.3-3.9,1.5s-12.8-4.3-15.8-4.7
		s-8-0.9-11.1-1s-6.2-2.7-9-3.3s-5.7-2.7-9.9,2.3s-6.7,6.9-7.5,8.9S9,374.3,9,375.9s-0.4,8.8-1.3,9.2c0,0,9.1-1.6,11.4-3.3
		s8-3.8,10.2-3.8s7.4-2.8,9.5-4.3s7.7-1.3,10.1,0.5c2.8,1.9,5.7,3.4,8.9,4.5c1.6,0.5,3.2,1.8,1,2.4s-11.8-0.7-13.5-0.7
		s-13-0.9-15.8,0.1s-8.9,3.3-12.8,4.5s-12.9,4.7-15.3,4.7s-0.5,5.1,0,7.2s1.9,5,1.8,6s1.1,2.3,4.7,0.5s12.5-7,15.1-8.6
		s6.3-6.9,9.8-6.7s10.1,2.2,14.6,2.2s6,0.2,5.2,2.6s-6.4,3-11.9,3.5s-10.3,1.3-13.9,1.5s-7.2,1.6-14.1,6.5s-7.8,4.5-9.8,4.7
		s-1.5,2.4-0.4,6.1s3.8,8.6,3.2,10.8s3.9-1.2,5.1-2.1s13.2-11.5,14-12.8s9.7-6.6,15.2-6.7s10.2-1.1,12.6-1.1s4.1,1.9-0.2,3.9
		s-11.2,5.8-14.5,6.2s-13.2,3-18.7,6.9s-10.2,9-11.9,16.2s4,9.5,4.6,11.8s1,2.7,0.5,4.6c0,0,9.4-6.9,13-13.2s10.7-19.2,23-22.4
		s11.4-3.4,13.6-3.5c2.2-0.2,4.3-0.9,0.5,3.9s-19.6,15.2-25.9,17.6s-13,5.5-15.1,14.7s3.6,15.3,5.4,17s3.5,6.5,3.5,6.5l0.4-0.9
		c0.2,3.6,1.3,7,3.6,9.4c3.2,3.3,4.3,3.2,6.1,3.4c-0.1-1.2,0.3-2.3,1-3.3c1.1-1.1,9.3-19,12.5-26.7s13-12.9,16.8-12.4
		s2.2,5.1,0.5,6.7S53.1,464,52.5,473.4s1.5,16.5,10.7,16.3c0,0-3.5-2.5-3.7-8.6s0.1-9.8,3-14.2c2.9-4.4,7.2-10.6,10-8.9
		s-0.5,5.2-1.5,6.3s-7.6,6.1-8.6,14.7s0.2,10.9,4.4,13.5c2.4,1.5,5.2,2,8,1.5c0,0-4.7-5.2-5-11.8s1.8-15.4,9-16.2s0.5,7.4-0.6,10
		s-5.5,11.3-1.8,15.8s6.8,1.1,8.6,1.2s3.9-0.1,5.3,1.2c0,0-0.1-3.5,1-4.2c2.8-1.5,5.8-2.5,8.9-3c3-0.2,2.8-6.6,1.8-10.2
		s-1.6-11.7-7.9-15s0.7-4.6,2.6-2.8s9.7,12.4,7.5,24.5c0,0,7.2-1.3,8.4-3.4s1.1-13.6-2.4-19.3s-7.7-8.6-10.6-9.8s-3.4-5.2,0.8-4.7
		s10,4.7,12.2,14.3s2,15.1,1.7,15.7c0,0,8.5-5.2,9.1-6.3s2.2-7.2-0.7-14.3s-6.7-11.8-10.1-13.7s-3.6-4.9,0.1-4.1s10.3,5.6,11.7,17.1
		s10.3,11.8,10.3,11.8s7.4-4.5,8-5.7s-2.1-8.3-8.3-15.9s-6-7.3-7.8-8.6s-2.4-4.7,1.7-1.8c4.1,2.9,7.8,9.9,11.1,12s5.5,3.5,5.6,5.6
		s2.7-0.6,3.8-4.6s2.6-3.5,2.8-5.2s-1.3-9.7-10.3-13.4s-21.3-5.7-23.7-8.9s0.1-4.7,2.8-4.6c8.4,0,16.5,3.2,22.7,8.9
		c9.7,8.9,9.1,12.8,9.4,13.5s0.5-1.3,1.6-5.1c0.6-2.1,1.5-4.2,2.4-6.2c0.7-1.9,1-10.3-7.1-14.5s-13-6.2-20.3-6.6s-1.2-4.7,6.3-3
		c7.5,1.7,16.5,5.7,22.1,12.4s3.8,1.5,3.9-0.1s0.7-6.6,2.7-7.9s2.1-5.1-2.6-6.8s-16.2-4.6-25.9-6.6s-9.8-4.7-2.6-4.5
		c7.3,0.2,0.5,0.9,15.6,2.4s21.3,5.5,23.9,6.2S176.5,398.6,175.6,395.5z M93.1,382.2c0.2,1.4,0.2,2-1.4,2.1s-3-0.9-3.1-1.5
		s0.4-1.2,1.7-1.3C91.4,381.5,92.9,380.8,93.1,382.2z M84.5,365.1c1.1-1.1,1.5-1.5,2.7-1.1c1.4,0.5,4,1.9,3.7,3.6
		c-0.3,1.2-1.5,2-2.8,1.7c-0.3-0.1-0.6-0.2-0.9-0.4C85.9,367.9,83.4,366.2,84.5,365.1z M77.7,372.3c1.1-0.1,2.2-0.1,3.3,0
		c3,0.1,6.3,1.8,6.6,2.8s1.6,3.2-2.2,2.7s-5.1-2.5-6.7-2.7S75.6,372.4,77.7,372.3L77.7,372.3z M68.3,381.5c0.2-1.1,0.1-3.1,4.6-2.6
		c2.2,0.2,6.4-1,8.1,1s1.5,4.5-1,4.4s-4.7-0.6-7.2-0.5S68.1,382.6,68.3,381.5z M83.6,407.2c-0.8,1.3-4,2.7-5.1,3.2s-4.9,4-6.9,3.2
		s-2.6-3.1-0.4-4.5s3-1.3,4.6-1.8c1.6-0.8,3.3-1.4,5-1.8C83,405,84.5,405.8,83.6,407.2z M64.6,391.2c0.1-1.7,0-3.8,5.2-3.4
		c2.3,0.1,4.5-0.1,6.8-0.6c0.8-0.2,1.6,0.2,1.9,1c0.2,0.6-0.1,1.3-0.6,1.7c-1.9,1.7-4.3,2.7-6.8,2.9
		C68.1,392.9,64.5,392.9,64.6,391.2L64.6,391.2z M64.5,434.9c-1,1.2-5.2,6.2-17.5,12.5c-4,2-7.6,4.8-10.4,8.2
		c0.2-2.2,0.2-4.3,0.2-5.9c0-4.2,3.5-16.2,18.8-19.9S65.5,433.6,64.5,434.9L64.5,434.9z M63.3,401c-1.5-1.8,1.9-2.8,3.7-2.5
		s4.4-0.1,8.2-1.3s5.5-1,3.3,2.4S67,402.9,67,402.9C64.6,403,64.8,402.8,63.3,401z M67.2,425.8c1-1.7,2.5-3,4.4-3.6
		c1,0,5-1.6,6.9-2.7s5.5-0.1,3.6,1.3s-5.8,5.5-8.8,6.3S65.9,428.4,67.2,425.8L67.2,425.8z M74.2,438l2.2-1.7c1.5-0.8,3-1.7,4.4-2.7
		c1.9-1.5,2.8,0.7,1.5,2.7s-4,4.1-5.8,4.1S72,439.7,74.2,438z M83.9,451.1c-2.1,2-4.3,2.8-5.8,2.5s-1-2.6,0-3.8c0,0,2.4-3.3,4.1-2.6
		S85.9,449.2,83.9,451.1L83.9,451.1z M90.9,396.4c-0.5,1.1-3,2.9-5.1,1.8s-2.7-1.6-1.8-2.7c0.8-1.4,2.5-2.2,4.1-1.9
		C91.2,393.9,91.3,395.2,90.9,396.4L90.9,396.4z M92.6,390c-2.1,0.9-4.4,1.6-6.2,0.7s-2.3-3.5,0-3.6s2.5-0.7,4.6,0
		S94.7,389.2,92.6,390z M97.2,377.8c1.4,0.4,2.3,1.4,1.2,2.1s-2.7,1.7-2.7,0C95.6,379,96.3,378.1,97.2,377.8L97.2,377.8z
		 M101.4,434.9c-3.5,0.4-5.7-0.2-5.7-1.7s2.8-2,2.8-2c1.3,0.4,2.6,0.7,3.9,0.9C103.8,432.1,104.9,434.5,101.4,434.9L101.4,434.9z
		 M105.5,427c-5-2.1-5.8-0.1-5.8-2.1s1.5-2.7,4.7-1.5c1.7,0.6,3.8,1.2,4.2,2.4S110.5,429,105.5,427L105.5,427z M109.4,413.6
		c-0.7,2-3,3-6.4,2.8s-6.3-0.7-5.7-3s0.7-3.1,3.5-3c0,0,1.8,0.1,4.6,0S110.1,411.6,109.4,413.6L109.4,413.6z M112.6,402.9
		c-0.8,1.8-4.4,2-5.5,1.1s-0.6-3.3,2.1-2.9C110,401.2,113.4,401.1,112.6,402.9L112.6,402.9z M118,402.9c-1.9,0.7-3.4,0.4-2.6-1
		c0.6-0.8,1.6-1.2,2.5-1C119,401.3,120,402.2,118,402.9L118,402.9z M120.5,392.3c-1.3,3.4-6.6,2.4-6.6,2.4c-1-0.3-1.8-1-2.2-1.9
		c-0.8-1.7,0.5-2.6,2.2-3.5s1.7-1,4.4-1.1S121.8,388.9,120.5,392.3L120.5,392.3z M122.3,381.5c-2,1.8-5.7,4-8.3,4.1s-2.1-3-0.6-4.1
		c0,0,3.7-3.3,6.8-2.8S124.2,379.8,122.3,381.5L122.3,381.5z M123.3,371.4c-1.8,1.8-5.9,5-8.1,5.3s-4.4,1.2-1.1-3.3
		c0.5-0.6,4-4.1,6.4-4.1S125.1,369.6,123.3,371.4L123.3,371.4z M155.4,378.8c-6.3,1.7-18.6,0.9-21,0.7s-1.7-2.7,1.2-4.1
		s10.5-7.5,18.5-2.8c5.1,3,7,4.6,7.7,5.9C159.7,378.2,157.5,378.3,155.4,378.8L155.4,378.8z"/>
</g>
</svg>
