<?xml version="1.0" encoding="utf-8"?>
<!-- Generator: Adobe Illustrator 25.0.1, SVG Export Plug-In . SVG Version: 6.00 Build 0)  -->
<svg version="1.1" id="Layer_1" xmlns="http://www.w3.org/2000/svg" xmlns:xlink="http://www.w3.org/1999/xlink" x="0px" y="0px"
	 viewBox="0 0 800 800" style="enable-background:new 0 0 800 800;" xml:space="preserve">
<style type="text/css">
	.st0{opacity:0.1;fill:#64A6C0;enable-background:new    ;}
	.st1{fill:#134E6F;}
	.st2{fill:#0F4760;}
	.st3{fill:#FFFFFF;}
	.st4{fill:#FF6150;}
	.st5{fill:#E04941;}
	.st6{fill:#C3C9E2;}
	.st7{fill:#191132;}
	.st8{fill:#FFA822;}
	.st9{fill:#64A6C0;}
	.st10{fill:#579CB2;}
	.st11{fill:#5EA2B7;}
	.st12{fill:#559EB5;}
	.st13{fill:#0A4559;}
	.st14{fill:#F4AE51;}
	.st15{fill:#EA9421;}
</style>
<g id="Calque_5">
	<path class="st0" d="M151,126c60.3-52.4,212.8-103.4,360.2,9.9c115.8,89,204.9,149,242.7,209.4c54.8,87.4,87.1,322.6-65.4,364.6
		S139.6,745.9,31,528.5S151,126,151,126z"/>
	<circle class="st0" cx="738.7" cy="135.1" r="31.4"/>
	<circle class="st0" cx="58.6" cy="671.3" r="41.2"/>
</g>
<path class="st1" d="M426.7,519.7c-1.4,2.5-44.7,108.2-55.5,130.1s-1.5,25.5,15.8,25.5h92.4c0,0,104.2-28.1,112.6-31.1
	s2.2-15.5-7.5-15.5s-107.6-2.9-115.8-2.9s-3-15.8-0.2-21.9S526.1,488,526.1,488L426.7,519.7z"/>
<path class="st2" d="M426.7,519.7c-1.4,2.5-44.7,108.2-55.5,130.1s-1.5,25.5,15.8,25.5h92.4c0,0,104-28.6,112.6-31.1
	c8.2-2.5,1.4-17.1-6.4-14.8c-28.1,9.6-95.9,25.3-101.6,25.3c-9.7,0-81-1.2-89.2-1.2s-6.1-11.1-3.4-17.2s50.9-119.5,50.9-119.5
	L426.7,519.7z"/>
<path class="st2" d="M295.3,560.2l296.6-65c9.7-0.7,17-9.8,16.2-20.1l-23.8-315c-0.8-10.3-9.4-18.2-19.1-17.5l-305.7,4.3
	c-9.7,0.7-17,9.8-16.2,20.1l32.8,375.7C277,553.1,285.6,560.9,295.3,560.2z"/>
<path class="st1" d="M320.3,554.4l312.2-65.6c10.2-0.8,17.9-9.7,17.2-20l-23.5-310.7c-0.8-10.3-9.7-17.9-20-17.1l-321.4,5.6
	c-10.2,0.8-17.9,9.7-17.1,19.9l32.7,370.7C301.1,547.5,310,555.1,320.3,554.4z"/>
<path class="st3" d="M337.2,499.7l270.3-49.5c8.8-0.7,15.5-7.9,14.9-16.1l-18.8-254c-0.6-8.2-8.3-14.3-17.2-13.7l-278,6
	c-8.8,0.7-15.5,7.9-14.9,16.1L320,486C320.7,494.2,328.4,500.4,337.2,499.7z"/>
<path class="st4" d="M478.3,270.3l179.1-17.3c5.8-0.4,7-2.1,6.9-3.9l-3.2-55c-0.1-1.8-1.5-2.9-7.3-2.6l-182.5,8
	c-5.8,0.4-4.7,2.1-4.6,3.9l6.6,64.3C473.5,269.5,472.5,270.6,478.3,270.3z"/>
<rect x="480.1" y="205.4" transform="matrix(0.9988 -4.884977e-02 4.884977e-02 0.9988 -9.4703 27.9633)" class="st5" width="174.5" height="4.6"/>
<rect x="482.3" y="247.5" transform="matrix(0.9957 -9.237059e-02 9.237059e-02 0.9957 -20.6387 53.6802)" class="st5" width="174.5" height="4.6"/>
<rect x="482.3" y="233" transform="matrix(0.9969 -7.915506e-02 7.915506e-02 0.9969 -16.8431 45.8218)" class="st5" width="174.5" height="4.6"/>
<rect x="480.7" y="218.7" transform="matrix(0.9981 -6.157115e-02 6.157115e-02 0.9981 -12.5316 35.3909)" class="st5" width="174.5" height="4.6"/>
<path class="st4" d="M509.1,437l175.6-24.7c5.7-0.6,5.6-2.5,5.4-4.3l-5.5-54c-0.2-1.7-0.4-2.7-6.1-2.1l-179.4,15.7
	c-5.7,0.6-10.2,2.5-10,4.3l9.3,63C498.5,436.7,503.4,437.6,509.1,437z"/>
<rect x="500.2" y="369.4" transform="matrix(0.9944 -0.1054 0.1054 0.9944 -35.9076 63.9863)" class="st5" width="174.5" height="4.6"/>
<rect x="505.9" y="411" transform="matrix(0.9887 -0.1498 0.1498 0.9887 -55.2175 93.5398)" class="st5" width="174.8" height="4.6"/>
<rect x="504" y="396.8" transform="matrix(0.9907 -0.1357 0.1357 0.9907 -48.6908 83.9361)" class="st5" width="174.5" height="4.6"/>
<rect x="501.6" y="382.6" transform="matrix(0.993 -0.1182 0.1182 0.993 -41.3735 72.3216)" class="st5" width="174.5" height="4.6"/>
<path class="st4" d="M232.7,392l203.2-28.6c6.6-0.7,7.2-2.9,7-4.9l-6.3-62.5c-0.2-2-1.2-3.1-7.8-2.4l-205.3,18.2
	c-6.6,0.7-4.9,2.9-4.7,4.9l8.4,72.9C227.4,391.6,226.1,392.7,232.7,392z"/>
<polygon class="st5" points="421.9,312.2 235.5,331.6 235,327 421.4,307.6 "/>
<polygon class="st5" points="426.4,350.2 241,377.2 240.2,372.6 425.6,345.7 "/>
<polygon class="st5" points="425.7,336.9 239.9,361.6 239.3,357 425,332.3 "/>
<polygon class="st5" points="423.3,324.2 237.2,345.9 236.6,341.3 422.7,319.6 "/>
<path class="st6" d="M372.4,329.5c0,0-10.4-3-13.4-11.4s-1.2-17.1,2-16.4s13.8,7.5,15.1,13.8s2.4,12,2.4,12L372.4,329.5z"/>
<path class="st7" d="M507.3,677.6c0,0-2.8,14.5,0.2,21.3s6.2,13.4-0.1,17.9s-10.1,9-11.3,13.4s1.9,8.1-9,8.1s-13.9,3.3-18.7,1.3
	s-8.1-4.6-1.5-9.2s15.9-12.4,18.6-22.3s6.1-25.5,6.1-25.5L507.3,677.6z"/>
<path class="st7" d="M479.3,692.2c-0.2,2.2-0.2,4.5,0,6.8c0.3,5.4,5.7,5.2,1.3,14.5s-5.9,22.6-6.5,24.6s-19.2,6.2-23.6,2.2
	s-6.6-8.4-6.2-11.3s8.8-3.1,12.2-3.4s7.8-14.5,8.6-27l0.8-12.5L479.3,692.2z"/>
<path class="st8" d="M519.5,471.7c0,0,11.6,20.5,12.6,32.7s-2.8,21.3-5.5,24.7c0,0-2.8,42.5-4.6,52.7s2.7,14.5,4.6,27.5
	s-19.4,77.3-19.6,83.3c0,0-17.9-3.1-21.3,0c0,0,7.3-73.4,8-78.3s-6.2-16.9-3.1-22.6c1.8-3.4,0.2-14-1.4-22.1
	c-1.1-5.6-6.6,22.7-7.2,29.1s3.7,20.5,2.9,34.8s-3.9,60.4-4.1,61.2s-16.3-1.6-18.9,0s-4.4-87.2-6-90s-1.6-10.4,0-13.8
	s-1.3-56.3,0.5-72.4s9.6-54.7,9.6-54.7l47.5,3.1L519.5,471.7z"/>
<path class="st9" d="M507,370.8c6.3-1.6,15.7-3.1,18.8,6.3s4.7,23.6-4.7,42.4s-11,37.7-3.1,48.7c0,0-1.6,15.7-25.1,11
	s-26.7-9.4-28.3-9.4c0,0-3.1-23.6-1.6-31.4c0,0-14.1-12.6-11-25.1c1.6-6.3,3.1-7.9,3.1-7.9c-3.7-3.9-8.2-6.9-13.3-8.7
	c-9.2-3.2-38.4-19.6-40.8-24.1s-33.2-42.1-33.9-44.5s12.5-2.2,12.3-1.7s35.4,35.6,35.4,35.6s39.3,10.9,48.3,11.5
	c8.7,0.6,15,1.6,15,1.6L507,370.8z"/>
<path class="st6" d="M463.5,331c0,4.7,1.6,27.5,4.7,30.6s9.4,4.7,9.4,4.7s0.8,8.6-0.8,8.6c0,0,4.7,9.4,18.9,4.7s9.4-6.3,9.4-7.9
	s-3.1,0-4.7-4.7s-3.1-6.3-1.6-7.9s-31.4-28.3-31.4-28.3L463.5,331z"/>
<path class="st1" d="M465.9,313.8c4-6.7,14.1-11.3,20.4-11c14.3,0.6,23.2,12.5,26.8,26.3c0,0,6.8,29.4,5.2,40.4s-14.5,32.5-22.3,34
	s-11.2-37.8-17.5-52c-4.9-11.2-9.4-6.3-12.6-12.6S461.1,321.6,465.9,313.8z"/>
<path class="st10" d="M267.9,492.3c0,0-44.8,60.5-44.8,116.8s44.8,66.8,44.8,66.8s43.4-3.6,43.4-66.8S267.9,492.3,267.9,492.3z"/>
<path class="st9" d="M325.9,563.1c0,0-43.5,34-59.1,75s8,58.8,8,58.8s26.8,7.2,44.4-38.8S325.9,563.1,325.9,563.1z"/>
<path class="st9" d="M342,601.4c0,0-34.6,15.1-52.1,39.6s-4.8,40.4-4.8,40.4s16.5,9.4,36.1-18.1S342,601.4,342,601.4z"/>
<path class="st9" d="M201.3,528.5c0,0-2.6,37.7,11.2,64.5s33.6,22.9,33.6,22.9s15.9-10.4,0.5-40.4S201.3,528.5,201.3,528.5z"/>
<path class="st11" d="M188,563.7c0,0-0.5,62.4,26,102.7s60.4,28.8,60.4,28.8s26.4-21.1-3.3-66.3S188,563.7,188,563.7z"/>
<path class="st1" d="M219.5,678.8c42.4,5.7,96.4-2.9,96.4-2.9l5.6-2.2c0,0-6.7,70.2-8.6,78.4c-1,4-73.3,5-77.3,1.9
	S219.5,678.8,219.5,678.8z"/>
<path class="st1" d="M219.5,678.8c0,0,99-8.3,102.1-5.1C314.7,682.4,226.6,682.5,219.5,678.8z"/>
<g id="Calque_4">
	<path class="st8" d="M669.8,673.4c-3.6,0.5-10.4,7.4-20.9,9.9s-14.7,7.3-14.1,11.4s49.7-0.5,52.2,0s6.3-18.4,4.4-19.3
		S669.8,673.4,669.8,673.4z"/>
	<path class="st8" d="M699.8,690.5c12.3,1.8,19.5,2.6,22.2,0s-0.6-21.1-2.9-23.1s-12.7-2.5-22.4,0s-20.7,1-23.8,3.5
		S693.9,689.7,699.8,690.5z"/>
	<path class="st1" d="M669.8,656.6c0.9,7.4,1.8,21,1.8,21H687v-24L669.8,656.6z"/>
	<polygon class="st1" points="700.4,653.6 703.3,673.4 716.8,671.4 716.8,642.2 	"/>
	<path class="st1" d="M598.5,385.7c0,0-6.1-6.2-12.5-8.7s-23.2-1.3-14.7,4.3s16.5,11.5,24.1,11.9S598.5,385.7,598.5,385.7z"/>
	<path class="st12" d="M699.5,488c0,0,3.8,49.1,4.2,54.8s15.4,99.6,15.4,104.2s-21.2,9.7-21.2,9.7L686.6,593l-12.3-78.8L699.5,488z"
		/>
	<path class="st9" d="M699.2,442.3c0,0,11.5,28.3-2.2,50.4c-11.3,18.1-18.3,38.5-20.6,59.8c-1,8.2,8.5,18.8,9.3,34.6
		c0.8,16,4.7,74.7,4.7,74.7h-22.8c0,0-20.3-97.5-22.4-110.7s10.4-110.7,10.4-110.7L699.2,442.3z"/>
	<path class="st8" d="M690.5,332.1c0,0,6.1,11.7,7.8,17.2s6.8,10.4,4.3,31.9s-2.3,60.6-2.3,66.9s-46.7-5.4-46.7-5.4
		s-4-32.7-4.6-41.5s4.4-40.7,11.7-53.7s8.1-14.7,8.1-14.7L690.5,332.1z"/>
	<path class="st1" d="M656.1,283.1c0.2,2.3,1.4,11.3-1.5,13.9s-3.7,2.4-3.4,3s4.3,2.9,4.8,3.6c0.1,0.3,0.3,0.5,0.3,0.8
		c0.7,2.6,1.3,5.2,1.6,7.8c0.2,2.2-0.6,6.1,1.7,5.9c3.5-0.3,6.9-1,10.2-2.2c1.6-0.6-1.6,20.2-0.5,19.2c0.4-0.4,22.5-1.2,22.3-1.7
		c-2.4-4.5-3.5-13.8-0.3-19.4c1.8-3.1,0.3-13.4,0.3-13.4s-0.8-16.2-1.2-16.7s-17.5-10.2-17.5-10.2l-16.7,4.3L656.1,283.1z"/>
	<path class="st7" d="M669.6,283c-2.2-1-8.4-1.1-11-1s-3.3,0.3-4.7,0s-0.1-6.1,0.5-7.2s3.7-5.4,6.2-7s4.8-1.6,9.6-1.2
		s14.6-1.6,18.4-1.2s9.8,5.1,11,8.8s1.2,13.5-0.6,17.5s-2.9,10.4-3.6,12.8s-2.3,9.7-3.7,10.7s-4.5,0.8-6.5-1.5
		c-1.7-2.1-3.2-4.4-4.5-6.8c0,0,4-5.8,4-8.2s0.2-4.6-2.1-4.7c-3.3-0.1-4.2,8.1-4.2,9.3c-0.1,1.9,0.1,5.2-3,8.6
		c-5.5,6.1-16.7,8.8-17.2,7.6c-1.3-2.8-2.1-14.5-1.6-14.3c9.2,3.5,18.6-4.6,19.2-6.6c0.7-2.3-0.1-6.1-0.2-6.5
		C675.3,290.4,673.6,284.8,669.6,283z"/>
	<path class="st13" d="M675.9,311.1c0.3-0.3-4.3,4.4-6.1,4.9c0.5,1,0.7-0.2,0.4,4.3C671.5,316.9,673.4,313.7,675.9,311.1z"/>
	<path class="st14" d="M690.3,328c0,0-19.4,3.2-20.9,2.2l-1.8,5.2c0,0,9.1,1.5,15.6,0c2.9-0.8,5.9-1.3,8.9-1.7L690.3,328z"/>
	<path class="st15" d="M691.4,356.9c0,0-23.1,47.6-31.9,61.2c-5.8,4.1-65.2-20.8-68.6-22.8c1.8-2.4,7.9-7.6,8.8-7.8
		s46.9,11.3,48.5,9.5s17.8-43.7,17.8-43.7S691.7,334.6,691.4,356.9z"/>
	<path class="st8" d="M691.4,356.9c0,0-24,45.1-32.8,58.7c-4.1,6.3-64.3-18.3-67.7-20.3c1.8-2.4,5.2-11.8,6.1-11.9
		s46.9,11.3,48.5,9.5s17.7-43.7,17.7-43.7S691.7,334.6,691.4,356.9z"/>
</g>
</svg>
